<svg xmlns="http://www.w3.org/2000/svg" xmlns:xlink="http://www.w3.org/1999/xlink" width="1200" zoomAndPan="magnify" viewBox="0 0 900 506.249968" height="675" preserveAspectRatio="xMidYMid meet" version="1.0"><defs><clipPath id="02c7c9ffb8"><path d="M 0.664062 0 L 899.332031 0 L 899.332031 505.5 L 0.664062 505.5 Z M 0.664062 0 " clip-rule="nonzero"/></clipPath><clipPath id="e98d02c117"><path d="M 370 0 L 899.332031 0 L 899.332031 420 L 370 420 Z M 370 0 " clip-rule="nonzero"/></clipPath><clipPath id="06adbbc28e"><path d="M 484.625 -122.371094 L 1034.179688 252.109375 L 919.894531 419.824219 L 370.34375 45.34375 Z M 484.625 -122.371094 " clip-rule="nonzero"/></clipPath><clipPath id="58f2d732a6"><path d="M -76.691406 -595.222656 L 1177.75 259.585938 L 616.875 1082.679688 L -637.566406 227.867188 Z M -76.691406 -595.222656 " clip-rule="nonzero"/></clipPath><clipPath id="991fb6cab5"><path d="M 210 0 L 899.332031 0 L 899.332031 505.5 L 210 505.5 Z M 210 0 " clip-rule="nonzero"/></clipPath><clipPath id="ee969b4278"><path d="M 330.828125 -122.371094 L 1020.246094 347.417969 L 899.636719 524.414062 L 210.21875 54.625 Z M 330.828125 -122.371094 " clip-rule="nonzero"/></clipPath><clipPath id="37c66afada"><path d="M -261.273438 -634.191406 L 1178.828125 347.132812 L 534.871094 1292.140625 L -905.230469 310.816406 Z M -261.273438 -634.191406 " clip-rule="nonzero"/></clipPath><clipPath id="1a2863298a"><path d="M 0.664062 0 L 894 0 L 894 505.5 L 0.664062 505.5 Z M 0.664062 0 " clip-rule="nonzero"/></clipPath><clipPath id="42578bbb8c"><path d="M 68.21875 -240.890625 L 1008.894531 400.113281 L 846.535156 638.375 L -94.140625 -2.625 Z M 68.21875 -240.890625 " clip-rule="nonzero"/></clipPath><clipPath id="7072072589"><path d="M -314.609375 -600.039062 L 1067.320312 341.644531 L 449.089844 1248.902344 L -932.835938 307.21875 Z M -314.609375 -600.039062 " clip-rule="nonzero"/></clipPath><clipPath id="a0493ee693"><path d="M 0.664062 0 L 690 0 L 690 505.5 L 0.664062 505.5 Z M 0.664062 0 " clip-rule="nonzero"/></clipPath><clipPath id="a768ec0f92"><path d="M 86.484375 -102.261719 L 788.894531 376.382812 L 594.066406 662.300781 L -108.347656 183.65625 Z M 86.484375 -102.261719 " clip-rule="nonzero"/></clipPath><clipPath id="ce13856e18"><path d="M -109.792969 -269.792969 L 804.273438 353.074219 L 395.214844 953.375 L -518.851562 330.507812 Z M -109.792969 -269.792969 " clip-rule="nonzero"/></clipPath><clipPath id="8e671d2383"><path d="M 0.664062 70 L 611 70 L 611 505.5 L 0.664062 505.5 Z M 0.664062 70 " clip-rule="nonzero"/></clipPath><clipPath id="298af6f51e"><path d="M 39.949219 -21.367188 L 692.234375 423.117188 L 537.464844 650.238281 L -114.820312 205.753906 Z M 39.949219 -21.367188 " clip-rule="nonzero"/></clipPath><clipPath id="09ec4a0910"><path d="M 39.949219 -21.367188 L 692.234375 423.117188 L 400.410156 851.371094 L -251.875 406.886719 Z M 39.949219 -21.367188 " clip-rule="nonzero"/></clipPath><clipPath id="af8737abd3"><path d="M 0.664062 145 L 441 145 L 441 505.5 L 0.664062 505.5 Z M 0.664062 145 " clip-rule="nonzero"/></clipPath><clipPath id="7764f1f24c"><path d="M -35.792969 69.0625 L 509.425781 440.59375 L 385.441406 622.539062 L -159.777344 251.011719 Z M -35.792969 69.0625 " clip-rule="nonzero"/></clipPath><clipPath id="6b5f4e6f64"><path d="M -35.792969 69.0625 L 509.425781 440.59375 L 265.675781 798.296875 L -279.542969 426.769531 Z M -35.792969 69.0625 " clip-rule="nonzero"/></clipPath><clipPath id="327b8526c7"><path d="M 0.664062 257 L 360 257 L 360 505.5 L 0.664062 505.5 Z M 0.664062 257 " clip-rule="nonzero"/></clipPath><clipPath id="b68832db40"><path d="M -5.078125 198.652344 L 411.417969 482.464844 L 225.023438 756.003906 L -191.476562 472.191406 Z M -5.078125 198.652344 " clip-rule="nonzero"/></clipPath><clipPath id="822a351f8c"><path d="M -5.078125 198.652344 L 411.417969 482.464844 L 225.023438 756.003906 L -191.476562 472.191406 Z M -5.078125 198.652344 " clip-rule="nonzero"/></clipPath></defs><g clip-path="url(#02c7c9ffb8)"><path fill="#ffffff" d="M 0.664062 0 L 899.335938 0 L 899.335938 505.5 L 0.664062 505.5 Z M 0.664062 0 " fill-opacity="1" fill-rule="nonzero"/><path fill="#fcd2af" d="M 0.664062 0 L 899.335938 0 L 899.335938 505.5 L 0.664062 505.5 Z M 0.664062 0 " fill-opacity="1" fill-rule="nonzero"/></g><g clip-path="url(#e98d02c117)"><g clip-path="url(#06adbbc28e)"><g clip-path="url(#58f2d732a6)"><path fill="#f9dcc4" d="M -272.875 -263.285156 C -250.015625 -289.398438 -232.566406 -319.742188 -211.585938 -347.386719 C -190.605469 -375.035156 -164.847656 -400.777344 -132.121094 -412.328125 C -97.148438 -424.671875 -58.136719 -419.328125 -23.082031 -407.21875 C 11.972656 -395.105469 44.421875 -376.589844 78.480469 -361.90625 C 179.40625 -318.390625 293.03125 -309.085938 391.875 -261.027344 C 450.601562 -232.476562 504.074219 -188.925781 533.160156 -130.457031 C 553.210938 -90.15625 560.78125 -45.007812 573.558594 -1.84375 C 579.945312 19.738281 587.722656 41.035156 598.851562 60.601562 C 609.980469 80.164062 624.597656 98.011719 643.003906 110.964844 C 673.25 132.246094 711.300781 138.894531 748.167969 141.84375 C 785.035156 144.796875 822.558594 144.683594 858.164062 154.695312 C 899.707031 166.375 937.003906 191.804688 964.410156 225.144531 C 991.820312 258.480469 1009.4375 299.484375 1016.5 342.058594 C 1030.621094 427.210938 1002.242188 515.914062 951.484375 585.722656 C 908.589844 644.714844 851.164062 691.1875 797.195312 740.246094 C 765.425781 769.125 734.5625 799.1875 700.039062 824.710938 C 665.511719 850.234375 626.800781 871.292969 584.671875 879.578125 C 548.382812 886.714844 510.714844 884.136719 474.484375 876.691406 C 438.257812 869.25 403.207031 857.039062 368.296875 844.816406 C 268.601562 809.902344 167.222656 773.605469 83.328125 709.417969 C -12.496094 636.105469 -79.996094 530.492188 -176.894531 458.609375 C -207.867188 435.632812 -241.488281 416.390625 -272.363281 393.277344 C -303.238281 370.164062 -331.855469 342.410156 -348.292969 307.519531 C -366.6875 268.46875 -368.398438 223.738281 -366.429688 180.613281 C -364.464844 137.492188 -359.167969 94.128906 -364.78125 51.324219 C -368.746094 21.089844 -378.078125 -8.15625 -384.214844 -38.027344 C -390.355469 -67.894531 -393.207031 -99.378906 -384.289062 -128.539062 C -375.679688 -156.707031 -356.734375 -180.574219 -335.988281 -201.484375 C -315.242188 -222.390625 -292.277344 -241.121094 -272.875 -263.285156 Z M -272.875 -263.285156 " fill-opacity="1" fill-rule="nonzero"/></g></g></g><g clip-path="url(#991fb6cab5)"><g clip-path="url(#ee969b4278)"><g clip-path="url(#37c66afada)"><path fill="#f8edeb" d="M -486.464844 -253.179688 C -460.222656 -283.15625 -440.195312 -317.984375 -416.113281 -349.71875 C -392.027344 -381.453125 -362.464844 -410.996094 -324.898438 -424.257812 C -284.753906 -438.429688 -239.980469 -432.292969 -199.742188 -418.390625 C -159.503906 -404.492188 -122.257812 -383.234375 -83.167969 -366.378906 C 32.679688 -316.433594 163.105469 -305.753906 276.558594 -250.59375 C 343.96875 -217.816406 405.347656 -167.828125 438.734375 -100.71875 C 461.746094 -54.457031 470.4375 -2.636719 485.101562 46.910156 C 492.433594 71.683594 501.359375 96.128906 514.136719 118.585938 C 526.910156 141.042969 543.6875 161.527344 564.816406 176.394531 C 599.535156 200.824219 643.210938 208.453125 685.527344 211.839844 C 727.84375 215.226562 770.914062 215.101562 811.78125 226.589844 C 859.46875 240 902.277344 269.1875 933.738281 307.453125 C 965.195312 345.71875 985.421875 392.785156 993.527344 441.652344 C 1009.734375 539.394531 977.160156 641.210938 918.898438 721.339844 C 869.664062 789.050781 803.75 842.394531 741.800781 898.703125 C 705.332031 931.855469 669.910156 966.359375 630.28125 995.65625 C 590.648438 1024.953125 546.214844 1049.125 497.859375 1058.632812 C 456.203125 1066.824219 412.96875 1063.867188 371.382812 1055.324219 C 329.796875 1046.777344 289.566406 1032.765625 249.5 1018.734375 C 135.0625 978.660156 18.695312 937 -77.601562 863.320312 C -187.589844 779.171875 -265.066406 657.941406 -376.292969 575.433594 C -411.84375 549.058594 -450.433594 526.972656 -485.875 500.445312 C -521.3125 473.914062 -554.160156 442.058594 -573.027344 402.007812 C -594.144531 357.183594 -596.105469 305.839844 -593.847656 256.339844 C -591.589844 206.84375 -585.511719 157.070312 -591.953125 107.941406 C -596.507812 73.234375 -607.21875 39.664062 -614.261719 5.378906 C -621.308594 -28.90625 -624.582031 -65.042969 -614.347656 -98.515625 C -604.464844 -130.847656 -582.71875 -158.242188 -558.90625 -182.242188 C -535.09375 -206.242188 -508.734375 -227.742188 -486.464844 -253.179688 Z M -486.464844 -253.179688 " fill-opacity="1" fill-rule="nonzero"/></g></g></g><g clip-path="url(#1a2863298a)"><g clip-path="url(#42578bbb8c)"><g clip-path="url(#7072072589)"><path fill="#fae1dd" d="M -530.746094 -234.335938 C -505.5625 -263.105469 -486.339844 -296.535156 -463.222656 -326.992188 C -440.109375 -357.453125 -411.734375 -385.808594 -375.675781 -398.539062 C -337.144531 -412.136719 -294.171875 -406.25 -255.550781 -392.90625 C -216.929688 -379.566406 -181.179688 -359.164062 -143.660156 -342.984375 C -32.46875 -295.046875 92.714844 -284.792969 201.609375 -231.851562 C 266.3125 -200.394531 325.222656 -152.414062 357.265625 -88 C 379.355469 -43.597656 387.695312 6.140625 401.769531 53.695312 C 408.808594 77.472656 417.375 100.9375 429.636719 122.488281 C 441.898438 144.042969 458 163.703125 478.28125 177.972656 C 511.605469 201.421875 553.523438 208.746094 594.140625 211.996094 C 634.757812 215.246094 676.09375 215.125 715.320312 226.15625 C 761.09375 239.023438 802.179688 267.039062 832.375 303.765625 C 862.570312 340.492188 881.984375 385.667969 889.761719 432.574219 C 905.320312 526.386719 874.054688 624.109375 818.132812 701.019531 C 770.878906 766.007812 707.613281 817.210938 648.152344 871.257812 C 613.152344 903.074219 579.152344 936.195312 541.113281 964.3125 C 503.078125 992.433594 460.429688 1015.632812 414.015625 1024.757812 C 374.035156 1032.621094 332.535156 1029.78125 292.621094 1021.582031 C 252.710938 1013.378906 214.09375 999.929688 175.636719 986.464844 C 65.796875 948 -45.890625 908.011719 -138.320312 837.292969 C -243.882812 756.527344 -318.25 640.167969 -425.003906 560.976562 C -459.128906 535.664062 -496.167969 514.464844 -530.183594 489.003906 C -564.199219 463.539062 -595.726562 432.960938 -613.832031 394.523438 C -634.101562 351.5 -635.984375 302.21875 -633.816406 254.710938 C -631.652344 207.199219 -625.816406 159.425781 -632 112.273438 C -636.367188 78.960938 -646.648438 46.738281 -653.410156 13.832031 C -660.175781 -19.074219 -663.316406 -53.761719 -653.492188 -85.886719 C -644.007812 -116.921875 -623.136719 -143.214844 -600.28125 -166.25 C -577.421875 -189.285156 -552.121094 -209.917969 -530.746094 -234.335938 Z M -530.746094 -234.335938 " fill-opacity="1" fill-rule="nonzero"/></g></g></g><g clip-path="url(#a0493ee693)"><g clip-path="url(#a768ec0f92)"><g clip-path="url(#ce13856e18)"><path fill="#fcd5ce" d="M -252.765625 -27.882812 C -236.105469 -46.914062 -223.390625 -69.027344 -208.101562 -89.175781 C -192.808594 -109.324219 -174.039062 -128.082031 -150.1875 -136.503906 C -124.699219 -145.5 -96.273438 -141.605469 -70.726562 -132.777344 C -45.179688 -123.953125 -21.53125 -110.457031 3.289062 -99.753906 C 76.839844 -68.042969 159.648438 -61.261719 231.683594 -26.242188 C 274.484375 -5.433594 313.453125 26.308594 334.648438 68.914062 C 349.261719 98.289062 354.777344 131.1875 364.089844 162.644531 C 368.742188 178.375 374.410156 193.894531 382.523438 208.152344 C 390.632812 222.410156 401.285156 235.417969 414.699219 244.855469 C 436.742188 260.367188 464.472656 265.210938 491.339844 267.359375 C 518.207031 269.511719 545.550781 269.433594 571.5 276.726562 C 601.777344 285.238281 628.957031 303.773438 648.929688 328.066406 C 668.90625 352.359375 681.746094 382.246094 686.890625 413.273438 C 697.183594 475.328125 676.5 539.972656 639.507812 590.847656 C 608.25 633.835938 566.402344 667.707031 527.070312 703.457031 C 503.914062 724.503906 481.425781 746.414062 456.261719 765.015625 C 431.101562 783.613281 402.890625 798.960938 372.1875 805 C 345.742188 810.199219 318.289062 808.320312 291.886719 802.894531 C 265.484375 797.472656 239.941406 788.574219 214.503906 779.664062 C 141.84375 754.222656 67.964844 727.769531 6.824219 680.992188 C -63.007812 627.5625 -112.199219 550.59375 -182.816406 498.210938 C -205.390625 481.464844 -229.890625 467.441406 -252.394531 450.597656 C -274.894531 433.753906 -295.75 413.527344 -307.726562 388.101562 C -321.132812 359.640625 -322.378906 327.042969 -320.945312 295.617188 C -319.511719 264.1875 -315.652344 232.585938 -319.742188 201.394531 C -322.632812 179.359375 -329.433594 158.046875 -333.90625 136.277344 C -338.382812 114.507812 -340.460938 91.566406 -333.960938 70.3125 C -327.6875 49.785156 -313.882812 32.390625 -298.761719 17.15625 C -283.640625 1.917969 -266.90625 -11.734375 -252.765625 -27.882812 Z M -252.765625 -27.882812 " fill-opacity="1" fill-rule="nonzero"/></g></g></g><g clip-path="url(#8e671d2383)"><g clip-path="url(#298af6f51e)"><g clip-path="url(#09ec4a0910)"><path fill="#fec5bb" d="M -62.035156 151.1875 C -50.152344 137.613281 -41.082031 121.839844 -30.175781 107.464844 C -19.269531 93.09375 -5.878906 79.714844 11.132812 73.707031 C 29.316406 67.292969 49.59375 70.070312 67.816406 76.363281 C 86.039062 82.660156 102.90625 92.289062 120.613281 99.921875 C 173.078125 122.542969 232.144531 127.378906 283.53125 152.359375 C 314.058594 167.203125 341.855469 189.84375 356.976562 220.238281 C 367.398438 241.1875 371.335938 264.65625 377.976562 287.097656 C 381.296875 298.316406 385.339844 309.386719 391.125 319.558594 C 396.910156 329.726562 404.507812 339.003906 414.078125 345.738281 C 429.800781 356.800781 449.582031 360.257812 468.746094 361.789062 C 487.910156 363.324219 507.417969 363.269531 525.925781 368.472656 C 547.523438 374.542969 566.910156 387.761719 581.15625 405.09375 C 595.40625 422.421875 604.566406 443.738281 608.238281 465.871094 C 615.578125 510.136719 600.824219 556.25 574.4375 592.539062 C 552.140625 623.203125 522.289062 647.363281 494.234375 672.867188 C 477.714844 687.878906 461.671875 703.507812 443.726562 716.773438 C 425.777344 730.042969 405.652344 740.988281 383.753906 745.296875 C 364.886719 749.003906 345.308594 747.664062 326.472656 743.796875 C 307.640625 739.925781 289.417969 733.582031 271.273438 727.226562 C 219.445312 709.078125 166.746094 690.207031 123.132812 656.839844 C 73.320312 618.730469 38.230469 563.824219 -12.140625 526.460938 C -28.242188 514.515625 -45.71875 504.511719 -61.769531 492.496094 C -77.820312 480.480469 -92.695312 466.054688 -101.242188 447.917969 C -110.804688 427.617188 -111.691406 404.363281 -110.671875 381.945312 C -109.648438 359.527344 -106.894531 336.984375 -109.8125 314.734375 C -111.875 299.019531 -116.726562 283.8125 -119.914062 268.285156 C -123.105469 252.757812 -124.589844 236.394531 -119.953125 221.234375 C -115.476562 206.589844 -105.628906 194.183594 -94.84375 183.316406 C -84.058594 172.445312 -72.121094 162.710938 -62.035156 151.1875 Z M -62.035156 151.1875 " fill-opacity="1" fill-rule="nonzero"/></g></g></g><g clip-path="url(#af8737abd3)"><g clip-path="url(#7764f1f24c)"><g clip-path="url(#6b5f4e6f64)"><path fill="#ffb5a7" d="M -121.019531 213.261719 C -111.089844 201.917969 -103.507812 188.734375 -94.394531 176.726562 C -85.28125 164.714844 -74.089844 153.535156 -59.875 148.515625 C -44.679688 143.152344 -27.734375 145.472656 -12.507812 150.734375 C 2.722656 155.996094 16.816406 164.039062 31.613281 170.417969 C 75.457031 189.324219 124.816406 193.363281 167.757812 214.242188 C 193.269531 226.644531 216.5 245.5625 229.132812 270.964844 C 237.84375 288.472656 241.132812 308.082031 246.679688 326.835938 C 249.457031 336.210938 252.835938 345.460938 257.667969 353.960938 C 262.503906 362.460938 268.855469 370.210938 276.851562 375.839844 C 289.988281 385.085938 306.519531 387.972656 322.535156 389.253906 C 338.550781 390.535156 354.851562 390.488281 370.316406 394.835938 C 388.367188 399.910156 404.566406 410.957031 416.472656 425.441406 C 428.378906 439.921875 436.035156 457.734375 439.101562 476.230469 C 445.234375 513.222656 432.90625 551.753906 410.855469 582.082031 C 392.222656 607.707031 367.277344 627.894531 343.832031 649.207031 C 330.03125 661.753906 316.625 674.8125 301.625 685.902344 C 286.628906 696.988281 269.8125 706.136719 251.507812 709.734375 C 235.746094 712.835938 219.382812 711.714844 203.644531 708.480469 C 187.90625 705.25 172.679688 699.945312 157.515625 694.632812 C 114.203125 679.46875 70.164062 663.699219 33.71875 635.816406 C -7.90625 603.96875 -37.230469 558.085938 -79.324219 526.863281 C -92.78125 516.878906 -107.382812 508.519531 -120.796875 498.480469 C -134.210938 488.441406 -146.640625 476.382812 -153.78125 461.226562 C -161.773438 444.261719 -162.515625 424.832031 -161.660156 406.097656 C -160.804688 387.363281 -158.503906 368.527344 -160.945312 349.933594 C -162.667969 336.796875 -166.722656 324.09375 -169.386719 311.117188 C -172.054688 298.140625 -173.292969 284.464844 -169.417969 271.796875 C -165.679688 259.558594 -157.449219 249.191406 -148.4375 240.109375 C -139.425781 231.027344 -129.449219 222.890625 -121.019531 213.261719 Z M -121.019531 213.261719 " fill-opacity="1" fill-rule="nonzero"/></g></g></g><g clip-path="url(#327b8526c7)"><g clip-path="url(#b68832db40)"><g clip-path="url(#822a351f8c)"><path fill="#e8a598" d="M -70.246094 308.910156 C -62.652344 300.238281 -56.855469 290.15625 -49.886719 280.972656 C -42.914062 271.789062 -34.359375 263.238281 -23.488281 259.402344 C -11.871094 255.300781 1.085938 257.078125 12.730469 261.101562 C 24.375 265.125 35.15625 271.273438 46.46875 276.152344 C 79.992188 290.605469 117.738281 293.699219 150.570312 309.660156 C 170.078125 319.144531 187.839844 333.613281 197.503906 353.035156 C 204.164062 366.421875 206.679688 381.417969 210.921875 395.757812 C 213.042969 402.925781 215.625 410 219.324219 416.5 C 223.019531 422.996094 227.875 428.925781 233.988281 433.226562 C 244.039062 440.296875 256.675781 442.503906 268.921875 443.484375 C 281.171875 444.464844 293.632812 444.429688 305.460938 447.753906 C 319.261719 451.632812 331.648438 460.082031 340.753906 471.15625 C 349.859375 482.230469 355.710938 495.851562 358.058594 509.992188 C 362.746094 538.277344 353.320312 567.742188 336.460938 590.933594 C 322.210938 610.527344 303.136719 625.964844 285.207031 642.261719 C 274.65625 651.855469 264.402344 661.839844 252.933594 670.320312 C 241.464844 678.796875 228.605469 685.792969 214.613281 688.542969 C 202.558594 690.914062 190.046875 690.058594 178.011719 687.585938 C 165.976562 685.113281 154.335938 681.058594 142.738281 676.996094 C 109.621094 665.398438 75.945312 653.34375 48.078125 632.019531 C 16.25 607.667969 -6.171875 572.585938 -38.359375 548.707031 C -48.652344 541.074219 -59.816406 534.683594 -70.074219 527.007812 C -80.328125 519.328125 -89.835938 510.109375 -95.296875 498.519531 C -101.40625 485.546875 -101.972656 470.6875 -101.320312 456.363281 C -100.667969 442.039062 -98.90625 427.636719 -100.773438 413.417969 C -102.089844 403.375 -105.191406 393.660156 -107.230469 383.738281 C -109.269531 373.816406 -110.214844 363.355469 -107.253906 353.671875 C -104.394531 344.3125 -98.101562 336.386719 -91.210938 329.441406 C -84.316406 322.496094 -76.6875 316.273438 -70.246094 308.910156 Z M -70.246094 308.910156 " fill-opacity="1" fill-rule="nonzero"/></g></g></g></svg>